<svg xmlns="http://www.w3.org/2000/svg" width="1440" height="373" fill="none"><path fill="#393646" d="m0 84.703 206.543-23.717 204.943 50.822 206.543-37.27 204.942-5.082 206.539 10.165L1234.46 0 1441 3.388v369.304H0V84.702Z"/><path fill="#3E3A4B" d="m0 115.196 206.543-38.963h204.943l206.543 50.821 204.942 8.47 206.539-25.41 204.95-10.165 206.54 5.082v267.661H0V115.196Z"/><path fill="#443D4F" d="m0 111.808 206.543 101.643 204.943-28.799 206.543-8.47 204.942 30.493L1029.51 96.561l204.95 93.173 206.54-71.15v254.108H0V111.808Z"/><path fill="#494153" d="m0 242.25 206.543-60.986 204.943 49.128 206.543 8.47 204.942 22.023 206.539-11.859 204.95-66.068L1441 272.743v99.949H0V242.25Z"/><path fill="#4F4557" d="m0 323.565 206.543-27.105 204.943 16.94 206.543 5.082 204.942-57.597 206.539 23.716 204.95 30.493L1441 294.766v77.926H0v-49.127Z"/></svg>