<svg width="32" height="32" viewBox="0 0 32 32" fill="none" xmlns="http://www.w3.org/2000/svg">
<path d="M9.324 16C9.324 19.6813 12.3187 22.676 16 22.676C19.6813 22.676 22.676 19.6813 22.676 16C22.676 12.3187 19.6813 9.32399 16 9.32399C12.3187 9.32399 9.324 12.3187 9.324 16ZM16 11.9907C18.2107 11.9907 20.0093 13.7893 20.0093 16C20.0093 18.2107 18.2107 20.0093 16 20.0093C13.7893 20.0093 11.9907 18.2107 11.9907 16C11.9907 13.7893 13.7893 11.9907 16 11.9907ZM14.664 25.3333H17.3307V29.3333H14.664V25.3333ZM14.664 2.66666H17.3307V6.66666H14.664V2.66666ZM2.664 14.6667H6.664V17.3333H2.664V14.6667ZM25.3307 14.6667H29.3307V17.3333H25.3307V14.6667ZM5.62533 24.484L8.452 21.6547L10.3387 23.54L7.512 26.3693L5.62533 24.484ZM21.6533 8.45866L24.4827 5.62932L26.368 7.51466L23.5387 10.344L21.6533 8.45866ZM8.456 10.3453L5.62667 7.51599L7.51333 5.63066L10.34 8.45999L8.456 10.3453ZM26.368 24.4853L24.4827 26.3707L21.6533 23.5413L23.5387 21.656L26.368 24.4853Z" fill="white"/>
</svg>
