<svg xmlns="http://www.w3.org/2000/svg" width="48" height="49" fill="none"><g clip-path="url(#a)"><path fill="#F7DF1E" d="M0 .292h48v48H0v-48Z"/><path fill="#000" d="m12.621 40.404 3.673-2.223c.709 1.256 1.354 2.32 2.9 2.32 1.482 0 2.417-.58 2.417-2.835V22.328h4.51V37.73c0 4.672-2.738 6.799-6.734 6.799-3.608 0-5.703-1.869-6.766-4.124Zm15.95-.483 3.673-2.127c.967 1.58 2.224 2.739 4.447 2.739 1.869 0 3.06-.934 3.06-2.223 0-1.547-1.224-2.095-3.286-2.997l-1.127-.483c-3.255-1.385-5.413-3.125-5.413-6.799 0-3.383 2.577-5.96 6.605-5.96 2.867 0 4.93.998 6.412 3.608l-3.513 2.256c-.773-1.386-1.61-1.933-2.9-1.933-1.32 0-2.158.838-2.158 1.933 0 1.353.838 1.901 2.77 2.739l1.128.483c3.835 1.643 5.993 3.319 5.993 7.088 0 4.06-3.19 6.283-7.475 6.283-4.188 0-6.895-1.997-8.216-4.607"/></g><defs><clipPath id="a"><path fill="#fff" d="M0 .292h48v48H0z"/></clipPath></defs></svg>