<svg xmlns="http://www.w3.org/2000/svg" width="73" height="73" fill="none"><path fill="#53C1DE" d="M60.02 25.044a48.914 48.914 0 0 0-2.35-.741c.133-.542.255-1.077.364-1.603 1.779-8.635.616-15.591-3.356-17.881-3.808-2.196-10.036.093-16.326 5.567a48.882 48.882 0 0 0-1.818 1.668c-.404-.386-.807-.76-1.21-1.117-6.592-5.853-13.2-8.32-17.167-6.023-3.805 2.203-4.932 8.742-3.33 16.926.154.79.335 1.597.54 2.418-.936.265-1.839.548-2.703.85C4.937 27.801 0 32.024 0 36.404c0 4.524 5.299 9.062 13.349 11.814.635.217 1.294.422 1.973.617-.22.888-.412 1.757-.573 2.606-1.527 8.041-.334 14.426 3.46 16.615 3.92 2.26 10.497-.063 16.902-5.662a41.551 41.551 0 0 0 1.524-1.404c.66.635 1.318 1.236 1.973 1.8 6.204 5.34 12.332 7.495 16.123 5.3 3.915-2.266 5.188-9.125 3.536-17.47a41.37 41.37 0 0 0-.438-1.952c.462-.136.915-.277 1.357-.424C67.555 45.472 73 40.99 73 36.405c0-4.396-5.095-8.647-12.98-11.361Zm-1.815 20.241c-.399.132-.808.26-1.226.384-.923-2.925-2.17-6.035-3.696-9.248 1.456-3.137 2.655-6.207 3.553-9.113.746.216 1.471.444 2.17.684 6.755 2.326 10.876 5.764 10.876 8.413 0 2.822-4.45 6.486-11.677 8.88Zm-2.998 5.941c.73 3.69.835 7.026.351 9.635-.434 2.343-1.309 3.906-2.39 4.532-2.3 1.331-7.22-.4-12.526-4.966a44.702 44.702 0 0 1-1.836-1.673c2.057-2.25 4.113-4.865 6.12-7.77 3.529-.313 6.863-.825 9.886-1.524.15.6.281 1.19.395 1.766Zm-30.32 13.936c-2.247.794-4.038.817-5.12.193-2.302-1.328-3.26-6.455-1.954-13.332.15-.787.328-1.596.533-2.423 2.99.661 6.3 1.137 9.837 1.424 2.02 2.842 4.136 5.454 6.267 7.742-.466.45-.93.877-1.39 1.28-2.833 2.476-5.671 4.233-8.173 5.116Zm-10.53-19.894c-3.56-1.217-6.499-2.798-8.514-4.524-1.81-1.55-2.725-3.09-2.725-4.339 0-2.658 3.963-6.048 10.573-8.353.802-.28 1.641-.543 2.513-.79.913 2.971 2.112 6.078 3.558 9.22-1.465 3.187-2.68 6.344-3.603 9.35a38.454 38.454 0 0 1-1.802-.564Zm3.53-24.027c-1.372-7.012-.46-12.3 1.832-13.628 2.442-1.414 7.843.602 13.535 5.656.363.323.729.661 1.095 1.011-2.121 2.278-4.217 4.87-6.219 7.696-3.433.318-6.72.83-9.741 1.514a45.81 45.81 0 0 1-.502-2.25Zm31.489 7.775a99.083 99.083 0 0 0-2.22-3.65c2.33.294 4.56.685 6.656 1.163a66.592 66.592 0 0 1-2.336 6.286 108.549 108.549 0 0 0-2.1-3.799ZM36.535 16.51a66.656 66.656 0 0 1 4.296 5.186 91.884 91.884 0 0 0-8.628-.002 68.76 68.76 0 0 1 4.332-5.184ZM23.612 29.038a92.074 92.074 0 0 0-2.061 3.774 68.816 68.816 0 0 1-2.32-6.316 70.266 70.266 0 0 1 6.618-1.136 91.578 91.578 0 0 0-2.238 3.678Zm2.304 18.635a66.37 66.37 0 0 1-6.728-1.081 70.017 70.017 0 0 1 2.366-6.445 91.648 91.648 0 0 0 4.362 7.526Zm10.705 8.849a69.992 69.992 0 0 1-4.392-5.257c1.398.055 2.823.083 4.271.083 1.488 0 2.959-.033 4.407-.098a66.317 66.317 0 0 1-4.286 5.272Zm14.885-16.487a66.118 66.118 0 0 1 2.451 6.422 66.247 66.247 0 0 1-6.81 1.16c.758-1.2 1.506-2.44 2.241-3.714a99.083 99.083 0 0 0 2.118-3.868Zm-4.819 2.31a102.246 102.246 0 0 1-3.502 5.65 93.923 93.923 0 0 1-6.685.235c-2.272 0-4.481-.07-6.61-.209a88.495 88.495 0 0 1-6.682-11.54 88.494 88.494 0 0 1 3.105-5.886 87.661 87.661 0 0 1 3.54-5.634 88.32 88.32 0 0 1 13.306.002 93.913 93.913 0 0 1 3.518 5.616 102.188 102.188 0 0 1 3.147 5.857 93.916 93.916 0 0 1-3.137 5.909ZM53.12 7.52c2.445 1.41 3.395 7.096 1.86 14.55-.098.476-.209.961-.329 1.452-3.028-.699-6.317-1.219-9.76-1.542-2.006-2.856-4.085-5.453-6.171-7.701.56-.54 1.121-1.054 1.679-1.54 5.39-4.69 10.426-6.542 12.721-5.219ZM36.5 29.887a6.519 6.519 0 1 1 0 13.037 6.519 6.519 0 0 1 0-13.037Z"/></svg>