<svg xmlns="http://www.w3.org/2000/svg" width="46" height="46" fill="none"><path fill="#000" d="M19.101 10.221a2.22 2.22 0 0 0 3.14 3.14l-3.14-3.14Zm13.45 13.45a2.22 2.22 0 1 0 3.14 3.14l-3.14-3.14Zm-5.826 12.112a2.22 2.22 0 1 0-3.14-3.14l3.14 3.14Zm-8.295 5.152 1.55 1.59.02-.02-1.57-1.57ZM4.98 27.488l-1.57-1.57-.02.02 1.59 1.55Zm8.295-5.156a2.22 2.22 0 1 0-3.14-3.14l3.14 3.14Zm17.937-4.49a2.22 2.22 0 1 0-3.14-3.14l3.14 3.14Zm-16.59 10.31a2.22 2.22 0 1 0 3.14 3.14l-3.14-3.14Zm7.619-14.791 6.725-6.726-3.14-3.14-6.725 6.726 3.14 3.14Zm6.725-6.726a7.29 7.29 0 0 1 10.31 0l3.14-3.14c-4.581-4.58-12.009-4.58-16.59 0l3.14 3.14Zm10.31 0a7.29 7.29 0 0 1 0 10.311l3.14 3.14c4.581-4.581 4.581-12.009 0-16.59l-3.14 3.14Zm0 10.311-6.725 6.725 3.14 3.14 6.725-6.725-3.14-3.14Zm-15.69 15.697-6.725 6.722 3.138 3.14 6.726-6.722-3.14-3.14Zm-6.706 6.703a7.29 7.29 0 0 1-10.244-.064l-3.14 3.14c4.541 4.539 11.887 4.585 16.484.103l-3.1-3.18Zm-10.244-.064a7.29 7.29 0 0 1-.066-10.245l-3.18-3.099c-4.481 4.598-4.434 11.944.107 16.483l3.139-3.14ZM6.55 29.056l6.725-6.725-3.14-3.14-6.725 6.726 3.14 3.14Zm21.523-14.354-13.45 13.45 3.139 3.14 13.45-13.451-3.14-3.14Z"/></svg>