<svg xmlns="http://www.w3.org/2000/svg" width="62" height="61" fill="none"><path fill="#000" fill-rule="evenodd" d="M31.08.167C14.094.167.327 13.934.327 30.92c0 13.585 8.81 25.114 21.031 29.184 1.539.277 2.094-.67 2.094-1.483 0-.731-.025-2.668-.034-5.23-8.556 1.856-10.363-4.125-10.363-4.125-1.394-3.552-3.413-4.499-3.413-4.499-2.79-1.908.213-1.865.213-1.865 3.089.216 4.708 3.17 4.708 3.17 2.744 4.698 7.202 3.342 8.948 2.555.28-1.988 1.082-3.345 1.957-4.113-6.826-.774-14.004-3.413-14.004-15.2 0-3.352 1.2-6.102 3.157-8.248-.311-.78-1.375-3.91.306-8.14 0 0 2.58-.83 8.454 3.148a29.54 29.54 0 0 1 7.696-1.036c2.6.004 5.188.352 7.696 1.036 5.877-3.98 8.455-3.148 8.455-3.148 1.68 4.23.625 7.36.305 8.14 1.973 2.146 3.157 4.893 3.157 8.248 0 11.818-7.184 14.414-14.035 15.176 1.094.95 2.081 2.824 2.081 5.691 0 4.114-.037 7.431-.037 8.44 0 .823.549 1.779 2.118 1.476 12.216-4.076 21.016-15.595 21.016-29.177C61.833 13.934 48.066.167 31.08.167Z" clip-rule="evenodd"/></svg>