<svg xmlns="http://www.w3.org/2000/svg" width="79" height="82" fill="none"><path fill="#F7DF1E" d="M.25 0h78v81.953h-78V0Z"/><path fill="#4F4557" d="m20.759 68.486 5.97-3.796c1.15 2.146 2.198 3.96 4.711 3.96 2.409 0 3.927-.99 3.927-4.84V37.624h7.33V63.92c0 7.977-4.45 11.608-10.943 11.608-5.864 0-9.267-3.191-10.995-7.042M46.679 67.66l5.968-3.63c1.571 2.696 3.613 4.676 7.226 4.676 3.037 0 4.974-1.595 4.974-3.796 0-2.64-1.99-3.576-5.341-5.116l-1.832-.825c-5.289-2.365-8.797-5.336-8.797-11.608 0-5.776 4.189-10.177 10.734-10.177 4.66 0 8.01 1.706 10.419 6.162l-5.707 3.85c-1.257-2.365-2.618-3.3-4.712-3.3-2.147 0-3.508 1.43-3.508 3.3 0 2.31 1.361 3.246 4.502 4.677l1.833.825c6.23 2.806 9.739 5.666 9.739 12.102 0 6.932-5.184 10.728-12.147 10.728-6.807 0-11.205-3.411-13.351-7.867Z"/></svg>