<svg xmlns="http://www.w3.org/2000/svg" width="95" height="59" fill="none"><path fill="#539E43" d="M46.947 58.127c-.321 0-.622-.086-.9-.236l-2.854-1.695c-.43-.237-.215-.322-.086-.365.58-.193.686-.236 1.287-.58.065-.042.15-.021.215.022l2.188 1.309c.086.043.194.043.258 0l8.561-4.957c.086-.043.129-.129.129-.236v-9.891c0-.108-.043-.193-.129-.236l-8.561-4.935c-.086-.044-.193-.044-.258 0l-8.56 4.934c-.087.043-.13.15-.13.236v9.892c0 .086.043.193.13.236l2.338 1.352c1.266.644 2.06-.107 2.06-.858v-9.763c0-.129.107-.258.257-.258h1.094a.26.26 0 0 1 .258.258v9.763c0 1.695-.923 2.682-2.532 2.682-.493 0-.88 0-1.974-.537l-2.253-1.287a1.81 1.81 0 0 1-.901-1.566v-9.892c0-.644.343-1.245.901-1.566l8.561-4.957c.537-.3 1.267-.3 1.803 0l8.561 4.957c.558.321.901.922.901 1.566v9.892a1.81 1.81 0 0 1-.901 1.566l-8.561 4.957c-.28.128-.601.193-.901.193Zm2.64-6.802c-3.755 0-4.528-1.717-4.528-3.176a.26.26 0 0 1 .258-.257h1.116c.128 0 .236.085.236.214.171 1.137.665 1.695 2.94 1.695 1.801 0 2.574-.407 2.574-1.373 0-.558-.215-.965-3.025-1.244-2.34-.236-3.798-.751-3.798-2.618 0-1.738 1.459-2.768 3.905-2.768 2.746 0 4.098.944 4.27 3.004a.346.346 0 0 1-.064.193c-.043.043-.108.086-.172.086h-1.116a.251.251 0 0 1-.236-.193c-.257-1.18-.923-1.567-2.682-1.567-1.974 0-2.21.687-2.21 1.202 0 .622.279.815 2.94 1.158 2.639.344 3.883.838 3.883 2.683-.021 1.888-1.566 2.96-4.291 2.96Z"/><path fill="#333" d="M20.384 19.44c0-.386-.215-.751-.558-.944l-9.098-5.236a1.324 1.324 0 0 0-.493-.15h-.086a1.02 1.02 0 0 0-.493.15L.558 18.496A1.091 1.091 0 0 0 0 19.44l.022 14.076c0 .193.107.386.278.472a.487.487 0 0 0 .537 0l5.407-3.09c.343-.193.558-.558.558-.944v-6.587c0-.387.214-.751.558-.945l2.296-1.33a1.04 1.04 0 0 1 .557-.15c.194 0 .387.043.537.15l2.296 1.33c.343.194.558.558.558.945v6.587c0 .386.214.75.558.944l5.407 3.09a.524.524 0 0 0 .558 0 .533.533 0 0 0 .279-.472l-.022-14.076ZM64.113.064a.59.59 0 0 0-.536 0 .56.56 0 0 0-.28.472v13.947a.412.412 0 0 1-.192.344.411.411 0 0 1-.387 0l-2.274-1.31a1.106 1.106 0 0 0-1.094 0l-9.098 5.258a1.092 1.092 0 0 0-.558.944V30.21c0 .386.215.751.558.944l9.098 5.257a1.105 1.105 0 0 0 1.094 0l9.098-5.257c.343-.193.558-.558.558-.944V4.055a1.1 1.1 0 0 0-.558-.965L64.113.064Zm-.837 26.693c0 .107-.043.193-.129.236l-3.11 1.802a.318.318 0 0 1-.28 0l-3.11-1.802c-.087-.043-.13-.15-.13-.236v-3.605c0-.107.043-.193.13-.236l3.11-1.803a.318.318 0 0 1 .28 0l3.11 1.803c.086.043.13.15.13.236v3.605Zm31.113-3.69c.343-.194.536-.559.536-.945v-2.553c0-.386-.215-.751-.536-.944l-9.034-5.236a1.106 1.106 0 0 0-1.094 0l-9.098 5.257a1.092 1.092 0 0 0-.557.944v10.492c0 .387.214.752.557.945l9.034 5.15c.343.192.75.192 1.073 0l5.47-3.047a.533.533 0 0 0 .28-.473.533.533 0 0 0-.28-.472l-9.14-5.257a.56.56 0 0 1-.278-.471v-3.283c0-.193.107-.386.278-.472l2.854-1.631a.523.523 0 0 1 .558 0l2.854 1.63a.56.56 0 0 1 .279.473v2.575c0 .193.107.386.279.471a.524.524 0 0 0 .557 0l5.408-3.154Z"/><path fill="#539E43" d="M84.669 22.573a.195.195 0 0 1 .214 0l1.738 1.008a.225.225 0 0 1 .108.193v2.017c0 .086-.043.15-.108.193l-1.738 1.009a.195.195 0 0 1-.214 0l-1.738-1.009a.225.225 0 0 1-.108-.193v-2.017c0-.086.043-.15.108-.193l1.738-1.008Z"/><path fill="url(#a)" d="M35.597 13.432a1.106 1.106 0 0 0-1.094 0l-9.034 5.214a1.071 1.071 0 0 0-.536.944v10.45c0 .386.215.75.536.944l9.034 5.214a1.106 1.106 0 0 0 1.094 0l9.033-5.215c.344-.193.537-.557.537-.944V19.59c0-.386-.215-.75-.537-.944l-9.033-5.214Z"/><defs><linearGradient id="a" x1="1404.65" x2="414.516" y1="416.45" y2="1972.24" gradientUnits="userSpaceOnUse"><stop stop-color="#41873F"/><stop offset=".329" stop-color="#418B3D"/><stop offset=".635" stop-color="#419637"/><stop offset=".932" stop-color="#3FA92D"/><stop offset="1" stop-color="#3FAE2A"/></linearGradient></defs></svg>